<svg width="112" height="112" viewBox="0 0 112 112" fill="none" xmlns="http://www.w3.org/2000/svg">
<g clip-path="url(#clip0_136_769)">
<path d="M28.277 27.3069C21.4232 30.8662 21.2698 39.5895 24.596 45.9945C27.2318 51.0701 36.2698 58.6955 42.5366 55.4411C46.5937 53.3342 49.9306 47.9553 42.839 34.2995C39.722 28.2973 32.7772 24.9699 28.277 27.3069ZM51.2496 15.377C43.7916 19.25 43.7174 28.7871 46.5265 34.1965C48.7589 38.4953 56.8252 49.8914 64.3408 45.9885C71.7528 42.1393 71.2455 31.3698 67.0078 23.2097C62.7283 14.969 55.1053 13.3747 51.2496 15.377ZM23.6681 59.6282C18.7536 62.1804 17.5026 71.956 21.1575 78.9939C23.7634 84.012 31.3159 89.3255 37.2087 86.2653C43.1533 83.1782 42.6759 73.606 38.8029 66.148C35.8293 60.4221 28.3293 57.2076 23.6681 59.6282ZM80.2019 30.2696C76.4054 32.3435 74.2501 37.8029 74.155 45.9772C74.0856 51.6686 75.8165 56.1693 78.9899 58.6642C81.2121 60.4108 83.9737 61.0153 86.7413 60.3087C87.3683 60.1512 87.9706 59.9041 88.5403 59.6082C93.1498 57.2145 95.4195 50.512 94.4207 42.1166C93.8959 37.7714 91.2459 33.2877 87.8692 30.9641C85.8672 29.5853 83.8357 29.1205 81.9549 29.5931C81.3482 29.7474 80.7427 29.9742 80.2019 30.2696ZM56.3344 59.4987C51.6213 61.9463 50.4661 66.9959 49.2691 72.3449C48.8786 74.1113 48.4887 75.9212 47.937 77.7713C47.2781 80.0059 46.3851 81.9164 45.6363 83.5839C43.8553 87.541 42.3418 90.972 44.8013 95.7081C47.0247 99.9896 52.5176 102.632 58.7097 99.416C62.1279 97.6409 64.2139 95.6077 66.2313 93.6394C68.0201 91.8922 69.7119 90.2537 72.2613 88.9298C75.0408 87.4864 77.7859 86.638 80.4737 85.8341C83.098 85.0485 85.8499 84.2696 88.4798 82.9039C95.4142 79.3028 97.4361 74.5995 94.5313 69.006C92.3109 64.7303 87.8084 65.0226 83.8244 65.2722C81.1905 65.4344 78.4755 65.5949 76.2509 64.6458C74.4088 63.8562 72.6489 62.9435 70.9669 62.0122C66.1202 59.3342 61.5769 56.7762 56.3344 59.4987Z" fill="#CFD9F4" fill-opacity="0.75"/>
</g>
<defs>
<clipPath id="clip0_136_769">
<rect width="83" height="83" fill="white" transform="translate(0 38.252) rotate(-27.4433)"/>
</clipPath>
</defs>
</svg>
