<svg width="43" height="43" viewBox="0 0 43 43" fill="none" xmlns="http://www.w3.org/2000/svg">
<path d="M21.9834 42.9287C10.3857 42.9287 0.983398 33.5264 0.983398 21.9287C0.983398 10.331 10.3857 0.928711 21.9834 0.928711C33.5811 0.928711 42.9834 10.331 42.9834 21.9287C42.9834 33.5264 33.5811 42.9287 21.9834 42.9287ZM15.4381 20.5704C15.0696 20.9293 14.8615 21.4228 14.8615 21.9373C14.8615 22.4518 15.0696 22.9443 15.4381 23.3042L24.3764 32.0259C25.1296 32.7609 26.339 32.7475 27.0759 31.9925C27.8119 31.2374 27.7975 30.029 27.0425 29.293L19.5054 21.9383L27.0606 14.5663C27.8157 13.8303 27.8309 12.6209 27.094 11.8668C26.7199 11.4831 26.2235 11.2903 25.7271 11.2903C25.246 11.2903 24.7649 11.4707 24.3946 11.8325L15.4381 20.5704Z" fill="#D1D1D1"/>
</svg>
