<svg width="43" height="43" viewBox="0 0 43 43" fill="none" xmlns="http://www.w3.org/2000/svg">
<path d="M21.0166 0.928711C32.6143 0.928711 42.0166 10.331 42.0166 21.9287C42.0166 33.5264 32.6143 42.9287 21.0166 42.9287C9.41887 42.9287 0.0166016 33.5264 0.0166016 21.9287C0.0166016 10.331 9.41887 0.928711 21.0166 0.928711ZM27.5619 23.287C27.9304 22.9281 28.1385 22.4346 28.1385 21.9201C28.1385 21.4056 27.9304 20.9131 27.5619 20.5532L18.6236 11.8315C17.8704 11.0965 16.661 11.1099 15.9241 11.8649C15.1881 12.62 15.2025 13.8284 15.9575 14.5644L23.4946 21.9192L15.9394 29.2911C15.1843 30.0271 15.1691 31.2365 15.906 31.9906C16.2801 32.3743 16.7765 32.5671 17.2729 32.5671C17.754 32.5671 18.2351 32.3867 18.6054 32.0249L27.5619 23.287Z" fill="#C2CADE"/>
</svg>
