<svg xmlns="http://www.w3.org/2000/svg" aria-hidden="true">
<defs>
<symbol id="icon-Logo" viewBox="0 0 193 32">
<path d="M7.933 3.992c0.526-0.309 1.314-0.603 2.366-0.881 1.082-0.278 2.165-0.417 3.247-0.417 1.546 0 2.907 0.232 4.082 0.695 1.206 0.433 1.979 1.128 2.319 2.086 0.557 1.607 1.16 3.477 1.809 5.61s1.299 4.343 1.948 6.63c0.649 2.256 1.283 4.497 1.902 6.723 0.619 2.195 1.16 4.142 1.624 5.842-0.371 0.433-0.928 0.773-1.67 1.020-0.742 0.278-1.624 0.417-2.644 0.417-0.742 0-1.376-0.062-1.902-0.185-0.495-0.124-0.912-0.309-1.253-0.556-0.309-0.247-0.572-0.572-0.789-0.974-0.186-0.402-0.356-0.866-0.51-1.391l-0.835-3.199h-8.397c-0.247 0.927-0.495 1.885-0.742 2.875s-0.495 1.947-0.742 2.875c-0.433 0.155-0.897 0.278-1.392 0.371-0.464 0.124-1.036 0.185-1.716 0.185-1.577 0-2.752-0.263-3.526-0.788-0.742-0.556-1.113-1.314-1.113-2.272 0-0.433 0.062-0.865 0.186-1.298s0.263-0.943 0.417-1.53c0.217-0.835 0.51-1.87 0.881-3.106 0.402-1.236 0.835-2.565 1.299-3.987 0.464-1.453 0.959-2.936 1.484-4.451s1.021-2.936 1.484-4.265c0.464-1.36 0.881-2.565 1.253-3.616 0.402-1.051 0.711-1.854 0.928-2.411zM13.499 9.973c-0.433 1.298-0.928 2.751-1.484 4.358-0.526 1.576-1.005 3.184-1.438 4.822h5.752c-0.433-1.669-0.881-3.292-1.345-4.868-0.433-1.607-0.835-3.044-1.206-4.312h-0.278z"></path>
<path d="M39.104 25.226c0.34 0.062 0.758 0.124 1.253 0.185 0.495 0.031 0.959 0.046 1.392 0.046 1.051 0 2.010-0.155 2.876-0.464 0.897-0.309 1.655-0.788 2.273-1.437 0.649-0.649 1.144-1.484 1.484-2.504 0.371-1.051 0.557-2.303 0.557-3.755 0-2.782-0.65-4.868-1.948-6.259-1.299-1.422-3.031-2.133-5.196-2.133-0.433 0-0.881 0.015-1.345 0.046-0.433 0.031-0.881 0.077-1.345 0.139v16.134zM41.702 31.995c-0.526 0-1.129-0.015-1.809-0.046s-1.392-0.093-2.134-0.186c-0.711-0.093-1.438-0.216-2.18-0.371-0.711-0.124-1.376-0.309-1.995-0.556-1.701-0.649-2.551-1.777-2.551-3.384v-21.651c0-0.649 0.17-1.144 0.51-1.484 0.371-0.371 0.866-0.665 1.484-0.881 1.33-0.433 2.737-0.711 4.221-0.835 1.484-0.155 2.814-0.232 3.989-0.232 2.412 0 4.593 0.294 6.541 0.881 1.979 0.587 3.665 1.499 5.056 2.735 1.423 1.205 2.521 2.735 3.294 4.59s1.16 4.049 1.16 6.583c0 2.473-0.371 4.636-1.113 6.491-0.742 1.824-1.809 3.369-3.201 4.636-1.361 1.236-3 2.164-4.917 2.782s-4.036 0.927-6.355 0.927z"></path>
<path d="M76.199-0.005c8.807 0 15.947 7.136 15.947 15.938s-7.14 15.937-15.947 15.937c-8.807-0-15.946-7.135-15.946-15.937s7.139-15.937 15.946-15.938zM76.696 15.271c-1.882-0.991-3.249 0.581-4.495 0.7-1.117 0.107-2.98-0.42-4.096 1.476-0.795 1.35-0.184 2.689 1.251 3.444 1.665 0.877 2.586 0.415 3.502 0.897 0.915 0.482 0.994 1.448 2.722 2.358 1.371 0.722 2.886 0.531 3.627-0.729 1.195-2.029-0.318-3.102-0.836-4.107-0.474-0.92 0.206-3.049-1.675-4.040zM84.298 16.429c-0.592-0.312-1.317-0.343-2.015-0.088s-1.313 0.776-1.709 1.448c-0.396 0.672-0.54 1.441-0.402 2.136s0.549 1.262 1.14 1.574c0.592 0.312 1.317 0.344 2.015 0.089s1.313-0.776 1.709-1.448c0.396-0.672 0.54-1.441 0.402-2.137s-0.549-1.262-1.14-1.574zM82.171 9.868c-0.346-0.015-0.702 0.042-1.048 0.168s-0.675 0.319-0.968 0.567c-0.293 0.248-0.545 0.548-0.741 0.881s-0.333 0.693-0.402 1.060c-0.069 0.366-0.069 0.732-0.001 1.077s0.205 0.661 0.4 0.931c0.196 0.27 0.448 0.489 0.741 0.643s0.622 0.242 0.967 0.257c0.346 0.015 0.702-0.042 1.048-0.168s0.675-0.319 0.968-0.567c0.293-0.248 0.545-0.548 0.741-0.881s0.333-0.693 0.402-1.059c0.069-0.367 0.069-0.733 0.001-1.077s-0.205-0.661-0.4-0.931c-0.196-0.27-0.448-0.488-0.741-0.643s-0.622-0.242-0.967-0.257zM71.653 9.767c-0.592-0.312-1.317-0.344-2.015-0.089s-1.313 0.776-1.709 1.448c-0.396 0.672-0.541 1.441-0.402 2.137s0.549 1.262 1.141 1.573c0.592 0.312 1.316 0.343 2.015 0.089s1.313-0.776 1.709-1.448c0.396-0.672 0.54-1.441 0.402-2.136s-0.549-1.262-1.14-1.574zM76.964 7.124c-0.346-0.015-0.702 0.042-1.048 0.168s-0.675 0.319-0.968 0.568c-0.293 0.248-0.545 0.547-0.741 0.88s-0.333 0.693-0.402 1.060c-0.069 0.367-0.069 0.733-0.001 1.077s0.205 0.661 0.4 0.931c0.196 0.27 0.448 0.488 0.741 0.643s0.622 0.242 0.967 0.257c0.346 0.015 0.701-0.042 1.047-0.169s0.675-0.319 0.968-0.567c0.293-0.248 0.545-0.548 0.741-0.881s0.333-0.693 0.402-1.059c0.069-0.367 0.069-0.733 0.001-1.077s-0.205-0.661-0.401-0.931c-0.196-0.27-0.447-0.488-0.74-0.643s-0.622-0.242-0.967-0.257z"></path>
<path d="M107.024 16.185c1.3 0 2.289-0.294 2.969-0.881 0.712-0.618 1.068-1.545 1.068-2.782 0-1.175-0.372-2.071-1.114-2.689-0.711-0.649-1.763-0.974-3.155-0.974-0.494 0-0.912 0.015-1.252 0.046-0.309 0-0.634 0.031-0.974 0.093v7.186h2.459zM104.612 31.068c-0.34 0.093-0.882 0.185-1.624 0.278-0.711 0.093-1.422 0.139-2.134 0.139s-1.345-0.062-1.901-0.185c-0.526-0.093-0.974-0.278-1.346-0.556s-0.649-0.665-0.835-1.159c-0.186-0.494-0.278-1.144-0.278-1.947v-21.837c0-0.649 0.17-1.144 0.51-1.484 0.371-0.371 0.866-0.665 1.484-0.881 1.052-0.371 2.242-0.634 3.572-0.788 1.361-0.185 2.722-0.278 4.083-0.278 4.268 0 7.531 0.912 9.788 2.735s3.386 4.296 3.386 7.418c0 1.514-0.247 2.89-0.742 4.126-0.464 1.205-1.175 2.256-2.133 3.153-0.928 0.865-2.119 1.545-3.572 2.040-1.422 0.464-3.077 0.695-4.964 0.695h-3.293v8.531z"></path>
<path d="M122.332 9.648c-0.217-0.34-0.418-0.804-0.604-1.391s-0.278-1.205-0.278-1.854c0-1.205 0.263-2.071 0.788-2.596 0.556-0.525 1.268-0.788 2.134-0.788h20.226c0.217 0.34 0.418 0.804 0.603 1.391s0.279 1.205 0.279 1.854c0 1.205-0.279 2.071-0.836 2.596-0.525 0.525-1.221 0.788-2.087 0.788h-5.149v21.419c-0.34 0.093-0.882 0.185-1.624 0.278-0.711 0.093-1.422 0.139-2.133 0.139s-1.346-0.062-1.902-0.185c-0.526-0.093-0.974-0.278-1.346-0.556s-0.649-0.665-0.835-1.159c-0.186-0.494-0.278-1.144-0.278-1.947v-17.989h-6.958z"></path>
<path d="M153.722 31.392c-1.33 0-2.381-0.386-3.155-1.159s-1.16-1.824-1.16-3.153v-23.969c0.34-0.062 0.882-0.139 1.624-0.232 0.742-0.124 1.453-0.185 2.133-0.185 0.712 0 1.33 0.062 1.856 0.185 0.556 0.093 1.020 0.278 1.392 0.556s0.649 0.665 0.835 1.159 0.278 1.144 0.278 1.947v18.313h10.623c0.217 0.34 0.418 0.804 0.604 1.391 0.185 0.556 0.278 1.144 0.278 1.762 0 1.236-0.263 2.117-0.788 2.643-0.526 0.494-1.222 0.742-2.088 0.742h-12.432z"></path>
<path d="M184.817 31.068c-0.34 0.093-0.866 0.185-1.577 0.278s-1.407 0.139-2.088 0.139c-1.422 0-2.489-0.232-3.201-0.695-0.711-0.494-1.067-1.514-1.067-3.060v-6.259c-0.773-1.144-1.608-2.411-2.505-3.802s-1.779-2.813-2.644-4.265c-0.866-1.453-1.67-2.874-2.412-4.265-0.742-1.422-1.345-2.72-1.809-3.894 0.402-0.556 0.943-1.066 1.624-1.53 0.711-0.464 1.577-0.695 2.597-0.695 1.206 0 2.18 0.247 2.923 0.742 0.773 0.495 1.5 1.422 2.18 2.782l3.85 7.743h0.279c0.433-0.958 0.804-1.824 1.113-2.596 0.34-0.804 0.665-1.592 0.974-2.364 0.309-0.804 0.634-1.623 0.974-2.457 0.34-0.865 0.727-1.854 1.16-2.967 0.556-0.278 1.175-0.495 1.855-0.649s1.33-0.232 1.948-0.232c1.083 0 1.995 0.294 2.737 0.881 0.773 0.556 1.16 1.406 1.16 2.55 0 0.371-0.077 0.819-0.232 1.345s-0.51 1.329-1.067 2.411c-0.557 1.051-1.377 2.488-2.459 4.312-1.052 1.824-2.49 4.203-4.315 7.14v9.412z"></path>
</symbol>
<symbol id="icon-up" viewBox="0 0 28 32">
<path d="M15.705 29.637c0 0.942-0.763 1.705-1.705 1.705s-1.705-0.763-1.705-1.705h3.411zM12.794 1.147c0.666-0.666 1.746-0.666 2.412 0l10.852 10.852c0.666 0.666 0.666 1.746 0 2.412s-1.746 0.666-2.412 0l-9.646-9.646-9.646 9.646c-0.666 0.666-1.746 0.666-2.412 0s-0.666-1.746 0-2.412l10.852-10.852zM14 29.637h-1.705v-27.284h3.411v27.284h-1.705z"></path>
</symbol>
<symbol id="icon-tiktok" viewBox="0 0 32 32">
<path fill="#515151" style="fill: var(--color1, #515151)" d="M16.302 11.892c-0.028 11.259 0.009 10.364-0.463 11.318-0.416 0.842-1.044 1.468-1.885 1.879-0.707 0.346-1.089 0.433-1.889 0.432-0.78-0.001-1.173-0.089-1.833-0.41-0.84-0.409-1.515-1.078-1.916-1.9-0.325-0.666-0.413-1.050-0.413-1.82-0.001-0.798 0.086-1.167 0.45-1.902 0.219-0.443 0.337-0.601 0.764-1.022 0.551-0.544 1.052-0.846 1.782-1.073 0.535-0.166 1.417-0.206 1.972-0.089 0.229 0.049 0.448 0.088 0.486 0.088 0.054 0 0.069-0.499 0.069-2.313v-2.313l-0.264-0.044c-0.145-0.024-0.664-0.042-1.153-0.040-1.429 0.007-2.553 0.258-3.791 0.849-4.877 2.328-6.531 8.222-3.556 12.673 0.514 0.769 1.624 1.878 2.375 2.374 2.319 1.531 5.118 1.927 7.777 1.101 2.382-0.74 4.512-2.676 5.469-4.971 0.248-0.595 0.437-1.249 0.561-1.94 0.091-0.509 0.098-0.981 0.084-6.079-0.008-3.041 0.003-5.528 0.024-5.528s0.13 0.071 0.241 0.158c0.627 0.491 1.889 1.162 2.854 1.518 1.079 0.398 2.615 0.695 3.6 0.695h0.499l-0.029-4.549-0.537-0.035c-1.703-0.11-3.25-0.815-4.525-2.061-1.24-1.212-1.968-2.77-2.108-4.508l-0.039-0.483h-4.583l-0.025 9.995z"></path>
</symbol>
<symbol id="icon-facebook" viewBox="0 0 32 32">
<path fill="#515151" style="fill: var(--color1, #515151)" d="M18.428 1.947c-1.665 0.25-2.835 0.791-3.795 1.756-0.808 0.812-1.312 1.765-1.597 3.019-0.108 0.474-0.122 0.76-0.144 2.991l-0.025 2.468h-4.56v5.017l4.54 0.029 0.015 6.438 0.015 6.438h5.436v-12.903h2.255c1.241 0 2.256-0.006 2.257-0.014 0.151-1.004 0.666-4.934 0.65-4.963-0.013-0.023-1.181-0.041-2.597-0.041h-2.574l0.019-2.054c0.019-2.009 0.023-2.061 0.156-2.38 0.271-0.647 0.841-1.029 1.692-1.134 0.233-0.029 1.121-0.053 1.972-0.054l1.548-0.002-0.015-2.247-0.015-2.247-0.752-0.065c-1.233-0.107-3.906-0.137-4.482-0.051z"></path>
</symbol>
<symbol id="icon-instagram" viewBox="0 0 32 32">
<path fill="#515151" style="fill: var(--color1, #515151)" d="M7.959 1.978c-1.578 0.235-2.823 0.865-3.97 2.009-1.168 1.164-1.815 2.481-2.028 4.129-0.083 0.645-0.083 15.12 0 15.764 0.213 1.647 0.857 2.957 2.030 4.13s2.482 1.817 4.129 2.030c0.644 0.083 15.118 0.083 15.762 0 1.647-0.213 2.956-0.857 4.129-2.030s1.817-2.483 2.030-4.13c0.083-0.644 0.083-15.12 0-15.764-0.213-1.648-0.86-2.965-2.028-4.129-1.18-1.176-2.486-1.818-4.131-2.031-0.706-0.091-15.298-0.071-15.923 0.022zM24.409 6.805c1.192 0.567 1.318 2.25 0.224 2.985-0.394 0.265-0.642 0.332-1.108 0.302-0.638-0.042-1.152-0.378-1.456-0.952-0.126-0.238-0.146-0.343-0.147-0.771-0.001-0.582 0.11-0.87 0.481-1.24 0.28-0.28 0.477-0.387 0.867-0.472 0.406-0.088 0.73-0.046 1.138 0.148zM17.129 10.25c1.779 0.338 3.302 1.496 4.116 3.132 0.424 0.852 0.603 1.628 0.603 2.617 0 1.553-0.535 2.912-1.58 4.015-1.149 1.212-2.597 1.834-4.269 1.834-2.834 0-5.166-1.912-5.756-4.72-0.123-0.586-0.123-1.673 0-2.258 0.241-1.145 0.721-2.078 1.487-2.885 0.487-0.514 0.898-0.83 1.474-1.136 1.267-0.672 2.526-0.864 3.924-0.598z"></path>
</symbol>

<symbol id="icon-heart" viewBox="0 0 32 32">
<path fill="#515151" style="fill: var(--color1, #515151)" d="M23.2 1c4.861 0 8.799 4.025 8.8 8.991 0 6.819-7.859 13.428-10.050 15.516-2.509 2.39-5.912 5.46-5.949 5.493 0 0-3.428-3.090-5.951-5.493-2.19-2.088-10.050-8.697-10.050-15.516 0-4.966 3.939-8.991 8.8-8.991 4.632 0 7.201 3.417 7.201 3.417s2.568-3.417 7.2-3.417z"></path>
</symbol>
<symbol id="icon-user" viewBox="0 0 28 32">
<path fill="#515151" style="fill: var(--color1, #515151)" d="M14 17.159c-4.412 0-13 2.582-13 7.316 0 1.961 1.118 3.74 2.919 4.644 2.356 1.183 6.163 1.881 10.098 1.881 3.575 0 7.257-0.577 10.051-1.886 1.781-0.836 2.933-2.656 2.933-4.638 0-4.734-8.588-7.317-13-7.317zM14 1c-1.722 0-3.374 0.732-4.591 2.035s-1.902 3.070-1.902 4.912c0 1.842 0.684 3.609 1.902 4.912s2.869 2.035 4.591 2.035c1.722 0 3.374-0.732 4.591-2.035s1.902-3.070 1.902-4.912c0-1.842-0.684-3.609-1.902-4.912s-2.869-2.035-4.591-2.035z"></path>
</symbol>
<symbol id="icon-menu" viewBox="0 0 48 32">
<path d="M3.174 5.17h41.653c1.379 0 2.499-1.12 2.499-2.499s-1.12-2.499-2.499-2.499h-41.653c-1.38 0-2.499 1.12-2.499 2.499s1.12 2.499 2.499 2.499zM44.826 13.501h-41.653c-1.38 0-2.499 1.12-2.499 2.499s1.12 2.499 2.499 2.499h41.653c1.379 0 2.499-1.12 2.499-2.499s-1.12-2.499-2.499-2.499zM44.826 26.83h-41.653c-1.38 0-2.499 1.12-2.499 2.499s1.12 2.499 2.499 2.499h41.653c1.379 0 2.499-1.119 2.499-2.499s-1.12-2.499-2.499-2.499z"></path>
</symbol>
<symbol id="icon-close" viewBox="0 0 37 32">
<path d="M3.951 0c-0.559 0-1.105 0.159-1.569 0.457s-0.823 0.721-1.034 1.215c-0.21 0.494-0.261 1.036-0.146 1.558s0.39 0.999 0.791 1.37l12.32 11.75-11.569 11.038c-0.27 0.247-0.485 0.543-0.633 0.87s-0.227 0.679-0.23 1.036c-0.004 0.356 0.067 0.71 0.208 1.040s0.35 0.63 0.614 0.882c0.264 0.252 0.579 0.451 0.925 0.586s0.717 0.202 1.090 0.199c0.374-0.003 0.743-0.078 1.086-0.22s0.653-0.347 0.912-0.604l11.574-11.034 11.526 10.992c0.259 0.257 0.569 0.462 0.912 0.604s0.712 0.216 1.086 0.22c0.374 0.004 0.744-0.064 1.090-0.199s0.66-0.334 0.925-0.586c0.264-0.252 0.473-0.552 0.614-0.882s0.212-0.684 0.208-1.040c-0.004-0.356-0.082-0.709-0.23-1.036s-0.364-0.623-0.633-0.87l-11.53-10.996 12.307-11.733c0.27-0.247 0.485-0.543 0.633-0.87s0.227-0.679 0.23-1.036c0.004-0.356-0.067-0.71-0.208-1.040s-0.35-0.63-0.614-0.882c-0.264-0.252-0.578-0.451-0.925-0.586s-0.717-0.202-1.090-0.199c-0.373 0.004-0.743 0.078-1.086 0.22s-0.653 0.347-0.912 0.604l-12.302 11.737-12.324-11.754c-0.262-0.257-0.575-0.461-0.921-0.601s-0.718-0.211-1.094-0.211z"></path>
</symbol>
</defs>
</svg>