<svg width="89" height="90" viewBox="0 0 89 90" fill="none" xmlns="http://www.w3.org/2000/svg">
<path d="M20.2406 13.8889C17.3393 12.2729 13.8107 12.0626 10.4311 13.3043C7.05154 14.546 4.09775 17.1379 2.21956 20.5099C0.341364 23.8819 -0.307376 27.7578 0.416053 31.2848C1.13948 34.8119 3.17582 37.7012 6.0771 39.3172C8.97838 40.9332 12.5069 41.1435 15.8865 39.9018C19.2661 38.6601 22.2199 36.0682 24.0981 32.6962C25.9763 29.3242 26.625 25.4483 25.9016 21.9212C25.1782 18.3942 23.1418 15.5049 20.2406 13.8889ZM82.2298 48.4166C79.3285 46.8006 75.8 46.5903 72.4204 47.832C69.0408 49.0737 66.087 51.6656 64.2088 55.0376C62.3306 58.4096 61.6819 62.2855 62.4053 65.8125C63.1287 69.3396 65.1651 72.2289 68.0663 73.8449C70.9676 75.4609 74.4962 75.6712 77.8758 74.4295C81.2554 73.1878 84.2092 70.5959 86.0874 67.2239C87.9655 63.8518 88.6143 59.976 87.8909 56.4489C87.1674 52.9219 85.1311 50.0326 82.2298 48.4166ZM50.6128 2.24833C49.1762 1.44817 47.5706 0.984702 45.8875 0.884398C44.2044 0.784094 42.4768 1.04891 40.8034 1.66374C39.13 2.27856 37.5435 3.23134 36.1346 4.46769C34.7256 5.70404 33.5218 7.19974 32.5918 8.86938C31.6618 10.539 31.0239 12.3499 30.7144 14.1987C30.405 16.0475 30.4301 17.8979 30.7883 19.6443C31.1465 21.3907 31.8308 22.9989 32.8021 24.3771C33.7735 25.7553 35.0128 26.8765 36.4493 27.6767C37.8859 28.4768 39.4916 28.9403 41.1747 29.0406C42.8578 29.1409 44.5854 28.8761 46.2588 28.2613C47.9322 27.6465 49.5186 26.6937 50.9276 25.4573C52.3365 24.221 53.5404 22.7253 54.4704 21.0556C55.4003 19.386 56.0383 17.5751 56.3477 15.7263C56.6572 13.8775 56.6321 12.0271 56.2739 10.2807C55.9157 8.53429 55.2314 6.92607 54.26 5.54787C53.2887 4.16967 52.0494 3.04849 50.6128 2.24833ZM76.1378 16.4656C74.7012 15.6655 73.0956 15.202 71.4125 15.1017C69.7293 15.0014 68.0018 15.2662 66.3284 15.881C64.655 16.4958 63.0685 17.4486 61.6595 18.685C60.2506 19.9213 59.0468 21.417 58.1168 23.0867C57.1868 24.7563 56.5489 26.5672 56.2394 28.416C55.93 30.2648 55.9551 32.1152 56.3133 33.8616C56.6715 35.608 57.3558 37.2162 58.3271 38.5944C59.2984 39.9726 60.5378 41.0938 61.9743 41.894C63.4109 42.6941 65.0166 43.1576 66.6997 43.2579C68.3828 43.3582 70.1104 43.0934 71.7838 42.4786C73.4572 41.8637 75.0436 40.911 76.4526 39.6746C77.8615 38.4383 79.0654 36.9426 79.9953 35.2729C80.9253 33.6033 81.5633 31.7924 81.8727 29.9436C82.1821 28.0948 82.1571 26.2444 81.7988 24.498C81.4406 22.7516 80.7563 21.1434 79.785 19.7652C78.8137 18.387 77.5744 17.2658 76.1378 16.4656ZM57.9614 83.4092C54.4428 89.7263 47.0888 90.5945 40.3648 86.8493C31.8942 82.1312 31.4401 77.2424 26.955 74.7442C22.4662 72.244 18.0164 74.5203 9.85565 69.9748C2.8217 66.0569 -0.247555 59.2498 3.52398 52.4786C8.82111 42.9684 17.9182 45.7556 23.3467 45.2905C29.3974 44.772 35.9376 36.9157 45.1631 42.0542C54.3849 47.1907 51.2315 57.9045 53.6005 62.5891C56.1918 67.7068 63.6308 73.2306 57.9614 83.4092Z" fill="#C0CDEF" fill-opacity="0.75"/>
</svg>
