<svg width="89" height="89" viewBox="0 0 89 89" fill="none" xmlns="http://www.w3.org/2000/svg">
<g clip-path="url(#clip0_136_779)">
<path d="M66.9824 23.6143C72.0471 26.7465 71.6619 33.4629 68.7348 38.196C66.4153 41.9467 59.0259 47.2887 54.3949 44.4248C51.3969 42.5707 49.1413 38.2423 55.3819 28.1511C58.1249 23.7157 63.6569 21.5578 66.9824 23.6143ZM50.0063 13.116C55.5176 16.5242 55.0245 23.8619 52.5524 27.8592C50.5879 31.0358 43.7282 39.3333 38.1745 35.8987C32.6972 32.5114 33.7085 24.2598 37.4377 18.2297C41.2036 12.1401 47.1572 11.354 50.0063 13.116ZM68.6618 48.7328C72.2935 50.9787 72.6915 58.5676 69.4752 63.7684C67.1819 67.4766 61.0682 71.1266 56.7136 68.4336C52.3207 65.717 53.24 58.3842 56.6483 52.873C59.265 48.6417 65.2173 46.6027 68.6618 48.7328ZM26.8852 22.8972C29.6848 24.7108 31.0271 29.033 30.6287 35.3239C30.3537 39.7041 28.7632 43.065 26.1792 44.8003C24.3697 46.0152 22.2114 46.3206 20.1241 45.6177C19.6511 45.4604 19.2022 45.2357 18.7812 44.9753C15.3749 42.8688 14.0163 37.5842 15.2686 31.1864C15.9228 27.8755 18.2191 24.5807 20.9495 22.9889C22.5685 22.0442 24.1573 21.804 25.5763 22.2758C26.0339 22.4295 26.4864 22.6388 26.8852 22.8972ZM43.5514 46.7489C47.0342 48.9027 47.6312 52.8521 48.243 57.0342C48.4414 58.4149 48.6368 59.8291 48.9543 61.2835C49.3321 63.0398 49.9085 64.5603 50.3881 65.8857C51.5293 69.0311 52.4951 71.7566 50.3308 75.2564C48.3742 78.4203 43.9981 80.1349 39.4224 77.3052C36.8964 75.7431 35.4097 74.0594 33.972 72.4296C32.6974 70.9829 31.491 69.6254 29.6071 68.4604C27.5532 67.1902 25.4913 66.3795 23.471 65.6063C21.4984 64.8509 19.4273 64.0932 17.4839 62.8914C12.3596 59.7224 11.0763 55.9893 13.6325 51.8559C15.5865 48.6963 19.0317 49.1808 22.0807 49.6025C24.0965 49.8791 26.1749 50.1592 27.9402 49.5578C29.4022 49.0569 30.8081 48.4566 32.1551 47.8375C36.0364 46.0579 39.6774 44.3531 43.5514 46.7489Z" fill="#CFD9F4" fill-opacity="0.75"/>
</g>
<defs>
<clipPath id="clip0_136_779">
<rect width="64" height="64" fill="white" transform="matrix(-0.850503 -0.525971 -0.525971 0.850503 88.0938 33.6621)"/>
</clipPath>
</defs>
</svg>
