<svg width="96" height="84" viewBox="0 0 96 84" fill="none" xmlns="http://www.w3.org/2000/svg">
<path d="M11.0409 32.22C7.75018 32.667 4.80057 34.615 2.84097 37.6355C0.881378 40.656 0.0723274 44.5016 0.591801 48.3263C1.11127 52.151 2.91672 55.6414 5.61096 58.0299C8.3052 60.4183 11.6675 61.509 14.9583 61.062C18.2491 60.6151 21.1987 58.6671 23.1583 55.6466C25.1179 52.6261 25.9269 48.7805 25.4074 44.9558C24.888 41.1311 23.0825 37.6406 20.3883 35.2522C17.694 32.8638 14.3317 31.7731 11.0409 32.22ZM81.3519 22.6703C78.0611 23.1173 75.1115 25.0653 73.1519 28.0858C71.1923 31.1063 70.3833 34.9519 70.9028 38.7766C71.4222 42.6012 73.2277 46.0917 75.9219 48.4801C78.6162 50.8686 81.9785 51.9593 85.2692 51.5123C88.56 51.0653 91.5096 49.1173 93.4692 46.0968C95.4288 43.0763 96.2379 39.2307 95.7184 35.4061C95.1989 31.5814 93.3935 28.0909 90.6992 25.7025C88.005 23.3141 84.6427 22.2234 81.3519 22.6703ZM28.3629 4.68961C26.7335 4.91092 25.1707 5.50307 23.7637 6.43225C22.3568 7.36144 21.1332 8.60946 20.1629 10.1051C19.1926 11.6007 18.4946 13.3146 18.1087 15.1489C17.7228 16.9832 17.6565 18.902 17.9138 20.7958C18.171 22.6896 18.7466 24.5213 19.6078 26.1862C20.469 27.8512 21.5989 29.3168 22.9329 30.4994C24.267 31.682 25.7791 32.5585 27.3829 33.0788C28.9867 33.599 30.6508 33.7529 32.2803 33.5316C33.9097 33.3103 35.4725 32.7181 36.8794 31.7889C38.2864 30.8598 39.5099 29.6117 40.4802 28.1161C41.4505 26.6205 42.1485 24.9066 42.5345 23.0723C42.9204 21.238 42.9866 19.3191 42.7294 17.4253C42.4722 15.5316 41.8965 13.6999 41.0354 12.035C40.1742 10.37 39.0443 8.90439 37.7102 7.72177C36.3762 6.53914 34.8641 5.66268 33.2603 5.14242C31.6564 4.62216 29.9923 4.4683 28.3629 4.68961ZM57.3145 0.757366C55.6851 0.978675 54.1223 1.57083 52.7153 2.50001C51.3083 3.4292 50.0848 4.67722 49.1145 6.17282C48.1442 7.66843 47.4462 9.38232 47.0603 11.2166C46.6744 13.051 46.6081 14.9698 46.8653 16.8636C47.1225 18.7574 47.6982 20.5891 48.5594 22.254C49.4206 23.9189 50.5504 25.3846 51.8845 26.5672C53.2185 27.7498 54.7306 28.6263 56.3345 29.1465C57.9383 29.6668 59.6024 29.8207 61.2318 29.5993C62.8612 29.378 64.424 28.7859 65.831 27.8567C67.2379 26.9275 68.4615 25.6795 69.4318 24.1839C70.4021 22.6883 71.1001 20.9744 71.486 19.1401C71.8719 17.3057 71.9382 15.3869 71.681 13.4931C71.4237 11.5993 70.8481 9.76766 69.9869 8.10272C69.1257 6.43777 67.9959 4.97215 66.6618 3.78953C65.3278 2.6069 63.8156 1.73044 62.2118 1.21018C60.608 0.689923 58.9439 0.536056 57.3145 0.757366ZM82.9196 65.226C83.8928 72.3912 78.529 77.4964 70.9023 78.5323C61.2946 79.8372 57.9991 76.1976 52.9119 76.8886C47.8205 77.5801 45.6251 82.0704 36.3688 83.3276C28.3906 84.4112 21.8521 80.805 20.8089 73.1248C19.3438 62.3379 28.2948 59.1122 32.3597 55.4842C36.8904 51.4405 37.4119 41.2314 47.8758 39.8102C58.3356 38.3895 62.2379 48.8538 66.9432 51.1815C72.0861 53.7225 81.3516 53.681 82.9196 65.226Z" fill="#C0CDEF" fill-opacity="0.75"/>
</svg>
