<svg width="100" height="100" viewBox="0 0 100 100" fill="none" xmlns="http://www.w3.org/2000/svg">
<path d="M21.2226 13.0202C20.8 12.9487 20.3495 13.0416 19.9711 13.3191C19.2142 13.8573 19.0453 14.9011 19.5835 15.6579C28.0599 27.5316 46.3259 34.7289 60.8737 34.8971H60.8901L63.0581 32.2758C49.6035 32.2758 30.164 24.6891 22.3099 13.7067C22.0408 13.3283 21.6451 13.0917 21.2226 13.0202ZM60.8901 34.8971L56.702 39.9262C34.3504 41.0866 31.9969 41.4406 30.4497 41.5752C28.4819 40.112 25.4887 36.9152 24.1264 35.1829C22.31 32.8788 21.0294 30.6084 20.8613 30.2721C19.8017 28.2202 16.7413 27.1964 14.6726 28.2223C12.604 29.2819 11.5958 32.3239 12.6722 34.4766C13.5467 36.1753 16.6233 41.8444 20.7102 45.9144C17.6156 50.9263 17.583 55.9375 17.583 60.7979L11.0396 80.0371C10.9724 80.2558 10.9913 80.4923 11.0922 80.6941C11.1931 80.8959 11.3597 81.0473 11.5783 81.1146L19.5835 83.7227C21.7867 84.4123 24.2091 83.1655 24.8819 81.0127C25.2014 79.9532 25.1014 78.76 24.5633 77.7509C24.0419 76.7755 23.1675 76.0339 22.1752 75.7143L21.5511 75.514L25.0166 69.3582C29.137 69.2741 31.677 68.5012 33.4093 65.1208C33.4766 65.1376 33.5424 65.1372 33.6097 65.1372L54.5833 63.5046V86.1601C54.5833 86.3114 54.6342 86.4464 54.7015 86.5641C54.7183 86.5977 54.734 86.6126 54.7508 86.6462C54.8181 86.7471 54.9192 86.8155 55.0201 86.8827C55.037 86.8827 55.0362 86.8988 55.053 86.9156H55.0694C55.1871 86.966 55.3064 87.001 55.4242 87.001H63.8497C66.1539 86.9673 68.0715 85.0336 68.0379 82.78C68.0211 81.67 67.5513 80.578 66.7272 79.7875C65.9704 79.0307 64.9779 78.6083 63.9351 78.6083L64.6578 66.3986C69.5519 62.3958 74.6643 55.9025 74.7652 49.3602L77.1369 44.6366L60.8901 34.8971ZM65.4133 18.0492C65.2325 18.0724 65.0617 18.1559 64.9272 18.2989C61.3281 21.8812 60.6553 26.1685 63.2453 29.5658L64.372 30.709L63.0778 32.2758L78.6347 41.6244L79.4921 39.9097H85.6971C86.0671 39.9097 86.3878 39.6746 86.4887 39.3382L89.8524 29.2472C89.9533 28.9949 89.9019 28.7103 89.7506 28.4917C89.5824 28.2731 89.3299 28.1369 89.0608 28.1369H82.6882L77.8759 23.3444C77.7246 23.1762 77.5066 23.0914 77.288 23.0914H74.1608L65.952 18.1642C65.7838 18.0633 65.5941 18.0261 65.4133 18.0492ZM76.6671 56.2419C75.1198 60.026 72.6288 63.2367 70.4424 65.5576L78.9698 69.056L78.9205 71.8152C78.9037 72.9252 79.3393 73.984 80.1129 74.7913C80.9034 75.5986 81.9457 76.0523 83.0725 76.0691H83.1251C84.2351 76.0691 85.2778 75.6471 86.0683 74.8734C86.8251 74.1334 87.2624 73.1766 87.3297 72.1339C87.3465 72.0666 87.3625 71.9811 87.3625 71.9138L87.3789 66.8026C87.3789 64.4144 86.0658 62.278 83.9299 61.2184L76.6671 56.2419ZM46.8475 67.6271L35.344 68.399C34.1163 70.064 32.6354 71.1079 31.0376 71.7134V86.1601C31.0376 86.631 31.4076 87.001 31.8786 87.001H40.3041C42.6082 86.9673 44.5259 85.0336 44.4923 82.78C44.4755 81.67 44.0057 80.578 43.1816 79.7875C42.3912 79.0139 41.3977 78.575 40.2877 78.5918H39.6307L41.0104 71.6641C43.8527 70.6719 45.7879 69.5948 46.8475 67.6271Z" fill="#E3CAFF"/>
</svg>
