<svg width="100" height="100" viewBox="0 0 100 100" fill="none" xmlns="http://www.w3.org/2000/svg">
<path d="M67.274 17.9971C60.578 17.9971 54.298 20.8866 50 25.8445C45.704 20.8866 39.43 17.9971 32.726 17.9971C20.196 17.9971 10 28.0379 10 40.3772C10 60.4647 28.618 73.0598 40.938 81.3971C44.04 83.4973 46.728 85.3099 48.728 86.9519L50 87.9971L51.274 86.9519C53.274 85.3099 55.954 83.4973 59.064 81.3971C71.382 73.0618 90 60.4647 90 40.3772C90 28.0379 79.804 17.9971 67.274 17.9971ZM54.984 37.8526C56.62 37.8526 57.938 39.6196 57.938 41.7773C57.938 43.935 56.622 45.702 54.984 45.702C53.346 45.702 52.03 43.935 52.03 41.7773C52.032 39.6196 53.348 37.8526 54.984 37.8526ZM45.032 37.8526C46.66 37.8526 47.97 39.6136 47.97 41.7674C47.97 43.9191 46.66 45.6821 45.032 45.6821C43.404 45.6821 42.094 43.9211 42.094 41.7674C42.094 39.6156 43.404 37.8526 45.032 37.8526ZM38.984 53.6942C37.348 53.6942 36.03 51.9093 36.03 49.7278C36.03 47.5463 37.346 45.7615 38.984 45.7615C40.622 45.7615 41.938 47.5463 41.938 49.7278C41.938 51.9093 40.62 53.6942 38.984 53.6942ZM53.74 63.4573C52.718 63.4573 51.948 63.2511 51.27 63.0646C50.822 62.9456 50.42 62.8564 50.002 62.8207C49.582 62.8564 49.18 62.9456 48.734 63.0646C48.056 63.2491 47.286 63.4573 46.264 63.4573C43.872 63.4573 41.822 61.0041 41.822 58.9991C41.822 57.1092 43.096 56.2762 44.328 55.4691C45.318 54.8206 46.342 54.1503 46.812 52.8612C47.718 50.3565 48.404 49.8151 50.006 49.7437C51.608 49.8151 52.294 50.3565 53.2 52.8612C53.67 54.1503 54.692 54.8206 55.684 55.4691C56.916 56.2762 58.19 57.1092 58.19 58.9991C58.182 61.0041 56.132 63.4573 53.74 63.4573ZM60.988 53.6942C59.372 53.6942 58.07 51.9093 58.07 49.7278C58.07 47.5463 59.372 45.7615 60.988 45.7615C62.604 45.7615 63.906 47.5463 63.906 49.7278C63.906 51.9093 62.606 53.6942 60.988 53.6942Z" fill="#E3CAFF"/>
</svg>
