<svg width="100" height="100" viewBox="0 0 100 100" fill="none" xmlns="http://www.w3.org/2000/svg">
<path d="M59.1523 23.8989C55.8783 23.8989 52.9354 25.2685 50.8262 27.4503C49.8144 27.0385 48.7121 26.7989 47.5523 26.7989C44.8167 26.7989 42.4069 28.0875 40.8121 30.0614C40.1975 29.8398 39.5436 29.6989 38.8523 29.6989C37.7908 29.6989 36.808 30.0058 35.9523 30.5032C35.0967 30.0058 34.1139 29.6989 33.0523 29.6989C29.8478 29.6989 27.2523 32.2944 27.2523 35.4989H38.8523H44.6523H56.2523H70.7523H76.5523C76.5523 32.2944 73.9568 29.6989 70.7523 29.6989C70.2331 29.6989 69.7415 29.792 69.2627 29.9198C67.2856 26.3471 63.5244 23.8989 59.1523 23.8989ZM23.3951 41.2989C20.5908 41.2989 18.1874 43.3045 17.6857 46.0624L13.2791 70.2989H12.7523C12.3681 70.2935 11.9865 70.3645 11.6299 70.5078C11.2733 70.6511 10.9487 70.8638 10.6751 71.1337C10.4014 71.4035 10.1841 71.725 10.0357 72.0796C9.88742 72.4341 9.81104 72.8146 9.81104 73.1989C9.81104 73.5832 9.88742 73.9637 10.0357 74.3183C10.1841 74.6728 10.4014 74.9944 10.6751 75.2642C10.9487 75.534 11.2733 75.7468 11.6299 75.8901C11.9865 76.0334 12.3681 76.1044 12.7523 76.0989H88.1523C88.5366 76.1044 88.9182 76.0334 89.2748 75.8901C89.6314 75.7468 89.9559 75.534 90.2296 75.2642C90.5033 74.9944 90.7206 74.6728 90.8689 74.3183C91.0173 73.9637 91.0936 73.5832 91.0936 73.1989C91.0936 72.8146 91.0173 72.4341 90.8689 72.0796C90.7206 71.725 90.5033 71.4035 90.2296 71.1337C89.9559 70.8638 89.6314 70.6511 89.2748 70.5078C88.9182 70.3645 88.5366 70.2935 88.1523 70.2989H87.6256C87.0436 67.0969 84.6643 53.9927 83.2189 46.0511C82.7172 43.2932 80.311 41.2989 77.5096 41.2989H23.3951ZM46.7424 47.0989C47.7371 47.0989 48.5209 48.4791 48.5209 50.9731C48.5209 53.731 47.0341 54.8304 45.5812 54.8304C44.2704 54.8304 42.7209 54.1721 42.7209 51.9304C42.718 49.2595 44.5297 47.0989 46.7424 47.0989ZM54.1623 47.0989C56.375 47.0989 58.1838 49.2622 58.1838 51.936C58.1838 54.1777 56.6342 54.836 55.3234 54.836C53.8705 54.836 52.3838 53.731 52.3838 50.9731C52.3867 48.4762 53.1676 47.0989 54.1623 47.0989ZM39.4697 54.8304C40.1164 54.8304 40.7941 55.506 41.4408 56.405C41.9135 57.0604 42.7152 58.0738 42.7152 59.2483C42.7181 60.069 41.8104 62.5618 39.8152 62.5618C38.516 62.5618 37.0456 61.5974 36.9209 59.0048C36.8339 57.2155 38.2923 54.8304 39.4697 54.8304ZM61.4293 54.8304C62.6067 54.8304 64.0651 57.2155 63.9781 59.0048C63.8563 61.5974 62.3857 62.5618 61.0894 62.5618C59.0942 62.5618 58.1894 60.069 58.1894 59.2483C58.1894 58.0738 58.9884 57.0604 59.4582 56.405C60.1049 55.5031 60.7826 54.8304 61.4293 54.8304ZM50.4467 58.6989C52.2737 58.6989 52.9869 59.943 53.3523 61.5989C54.0686 64.8614 58.1838 64.8792 58.1838 67.988C58.1867 68.8029 57.5007 70.2989 55.4707 70.2989C53.809 70.2989 52.9927 69.336 50.4523 69.336C47.9119 69.336 47.0957 70.2989 45.434 70.2989C43.4011 70.2989 42.7152 68.8029 42.7152 67.988C42.7152 64.8792 46.8304 64.8643 47.5467 61.5989C47.9121 59.943 48.6226 58.6989 50.4467 58.6989Z" fill="#E3CAFF"/>
</svg>
